{"title":"War - Why Can't We Be Friends?","uid":4834163,"size":303477333,"categoryP":"audio","categoryS":"flac","magnet":"?xt=urn:btih:36564b8b2ebc8aa0b44fbcd25cc6b6479fc19a7a&amp;dn=War+-+Why+Can%5C%27t+We+Be+Friends%3F&amp;tr=udp%3A%2F%2Ftracker.openbittorrent.com%3A80&amp;tr=udp%3A%2F%2Fopen.demonii.com%3A1337&amp;tr=udp%3A%2F%2Ftracker.coppersurfer.tk%3A6969&amp;tr=udp%3A%2F%2Fexodus.desync.com%3A6969","seeders":3,"leechers":2,"uploader":"Big-fat-cone","files":11,"time":1239247375,"description":"Exact Audio Copy V0.99 prebeta 3 from 28. July 2007\n\nEAC extraction logfile from 8. April 2009, 18:11\n\nWar / Why Can't We Be Friends?\n\nUsed drive  : ATAPI   DVD D  DH16D3P   Adapter: 0  ID: 1\n\nRead mode               : Secure\nUtilize accurate stream : Yes\nDefeat audio cache      : No\nMake use of C2 pointers : No\n\nRead offset correction                      : 6\nOverread into Lead-In and Lead-Out          : No\nFill up missing offset samples with silence : Yes\nDelete leading and trailing silent blocks   : No\nNull samples used in CRC calculations       : No\nUsed interface                              : Installed external ASPI interface\nGap handling                                : Not detected, thus appended to previous track\n\nUsed output format : Internal WAV Routines\nSample format      : 44.100 Hz; 16 Bit; Stereo\n\n\nTOC of the extracted CD\n\n     Track |   Start  |  Length  | Start sector | End sector \n    ---------------------------------------------------------\n        1  |  0:00.33 |  4:07.17 |        33    |    18574   \n        2  |  4:07.50 |  4:04.00 |     18575    |    36874   \n        3  |  8:11.50 |  7:25.45 |     36875    |    70294   \n        4  | 15:37.20 |  6:44.60 |     70295    |   100654   \n        5  | 22:22.05 |  7:26.25 |    100655    |   134129   \n        6  | 29:48.30 |  5:01.60 |    134130    |   156764   \n        7  | 34:50.15 |  3:13.70 |    156765    |   171309   \n        8  | 38:04.10 |  2:51.25 |    171310    |   184159   \n        9  | 40:55.35 |  3:50.05 |    184160    |   201414   \n\n\nTrack  1\n\n     Filename E:MusicWarWhy Can't We Be FriendsWar - Why Can't We Be Friends  - 01. Don't Let No One Get You Down.wav\n\n     Peak level 100.0 %\n     Track quality 100.0 %\n     Copy CRC 4B82A457\n     Accurately ripped (confidence 7)  [4E0046F4]\n     Copy OK\n\nTrack  2\n\n     Filename E:MusicWarWhy Can't We Be FriendsWar - Why Can't We Be Friends  - 02. Lotus Blossom.wav\n\n     Peak level 100.0 %\n     Track quality 100.0 %\n     Copy CRC C39E3933\n     Accurately ripped (confidence 7)  [ED082D90]\n     Copy OK\n\nTrack  3\n\n     Filename E:MusicWarWhy Can't We Be FriendsWar - Why Can't We Be Friends  - 03. Heartbeat.wav\n\n     Peak level 100.0 %\n     Track quality 100.0 %\n     Copy CRC 054E6DAF\n     Accurately ripped (confidence 7)  [DFF0EC61]\n     Copy OK\n\nTrack  4\n\n     Filename E:MusicWarWhy Can't We Be FriendsWar - Why Can't We Be Friends  - 04. Leroy's Latin Lament.wav\n\n     Peak level 100.0 %\n     Track quality 99.9 %\n     Copy CRC 10379AD2\n     Accurately ripped (confidence 6)  [F3D12B0A]\n     Copy OK\n\nTrack  5\n\n     Filename E:MusicWarWhy Can't We Be FriendsWar - Why Can't We Be Friends  - 05. Smile Happy.wav\n\n     Peak level 100.0 %\n     Track quality 100.0 %\n     Copy CRC A556F058\n     Accurately ripped (confidence 6)  [88034FC8]\n     Copy OK\n\nTrack  6\n\n     Filename E:MusicWarWhy Can't We Be FriendsWar - Why Can't We Be Friends  - 06. So.wav\n\n     Peak level 100.0 %\n     Track quality 100.0 %\n     Copy CRC 70807CF1\n     Accurately ripped (confidence 6)  [12F27463]\n     Copy OK\n\nTrack  7\n\n     Filename E:MusicWarWhy Can't We Be FriendsWar - Why Can't We Be Friends  - 07. Low Rider.wav\n\n     Peak level 100.0 %\n     Track quality 99.9 %\n     Copy CRC 36624715\n     Accurately ripped (confidence 6)  [8AE317AB]\n     Copy OK\n\nTrack  8\n\n     Filename E:MusicWarWhy Can't We Be FriendsWar - Why Can't We Be Friends  - 08. In Mazatlan.wav\n\n     Peak level 100.0 %\n     Track quality 99.9 %\n     Copy CRC 05BED3E3\n     Accurately ripped (confidence 6)  [2C4CAFE4]\n     Copy OK\n\nTrack  9\n\n     Filename E:MusicWarWhy Can't We Be FriendsWar - Why Can't We Be Friends  - 09. Why Can't We Be Friends .wav\n\n     Peak level 100.0 %\n     Track quality 100.0 %\n     Copy CRC BA021CCE\n     Accurately ripped (confidence 6)  [2D5957DD]\n     Copy OK\n\n\nAll tracks accurately ripped\n\nNo errors occurred\n\nEnd of status report\n","torrent":{"xt":"urn:btih:36564b8b2ebc8aa0b44fbcd25cc6b6479fc19a7a","amp;dn":"War+-+Why+Can%5C%27t+We+Be+Friends%3F","amp;tr":["udp%3A%2F%2Ftracker.openbittorrent.com%3A80","udp%3A%2F%2Fopen.demonii.com%3A1337","udp%3A%2F%2Ftracker.coppersurfer.tk%3A6969","udp%3A%2F%2Fexodus.desync.com%3A6969"],"infoHash":"36564b8b2ebc8aa0b44fbcd25cc6b6479fc19a7a","infoHashBuffer":{"type":"Buffer","data":[54,86,75,139,46,188,138,160,180,79,188,210,92,198,182,71,159,193,154,122]},"announce":[],"urlList":[]}}